Italian director Pietro Francisci directed this 1954 drama about the fifth-century invasion of Rome by Attila the Hun. Anthony Quinn stars as the legendary barbaric King of the Huns who wreaked havoc upon Rome, threatening to topple the entire empire. Sophia Loren costars as Honoria, the beautiful young woman whose help is enlisted by Pope Leo I and may be the only person who can end Attila's rampage. Also starring Henri Vidal and Irene Papas, Attila, il flagello di Dio was released in the United States as Attila. 


 
http://www.imdb.com/title/tt0046731/



Director:
Pietro Francisci





	Anthony Quinn	... 	Attila

	Sophia Loren	... 	Honoria
	Henri Vidal	... 	Aetius
	Claude Laydu	... 	Valentiniano Caesar
	Irene Papas	... 	Grune




Video #2
      ID : 2
      Format : VC-1
      Format profile : MP@ML
      Codec ID : WMV3
      Codec ID/Info : Windows Media Video 9
      Codec ID/Hint : WMV3
      Duration : 1h 15mn
      Bit rate mode : Variable
      Bit rate : 1 000 Kbps
      Width : 640 pixels
      Height : 480 pixels
      Display aspect ratio : 4/3
      Frame rate : 25.000 fps
      Resolution : 24 bits
      Scan type : Progressive
      Bits/(Pixel*Frame) : 0.130
      Stream size : 543 MiB (90%)
   Audio #1
      ID : 1
      Format : WMA2
      Format profile : L
      Codec ID : 161
      Codec ID/Info : Windows Media Audio 2
      Description of the codec : Windows Media Audio 9.2 -  96 kbps, 44 kHz, stereo 2-pass VBR
      Duration : 1h 15mn
      Bit rate mode : Variable
      Bit rate : 96.0 Kbps
      Channel(s) : 2 channels
      Sampling rate : 44.1 KHz
      Resolution : 16 bits
      Stream size : 52.1 MiB (9%)

Please seed at least as much as you D/L.
=======================================
Thanks 

John